<?xml version="1.0" encoding="utf-8"?>
<!-- Generator: Adobe Illustrator 15.1.0, SVG Export Plug-In . SVG Version: 6.00 Build 0)  -->
<svg version="1.2" baseProfile="tiny" id="Layer_1" xmlns="http://www.w3.org/2000/svg" xmlns:xlink="http://www.w3.org/1999/xlink"
	 x="0px" y="0px" width="612px" height="792px" viewBox="0 0 612 792" xml:space="preserve">
<g>
	<path fill="#010101" d="M128.408,163.828c0-6.76-5.48-12.24-12.24-12.24l0,0c-6.76,0-12.24,5.48-12.24,12.24v126.684
		c0.021,12.526-7.449,23.852-18.972,28.764V163.828c0-6.76-5.48-12.24-12.24-12.24l0,0c-6.76,0-12.24,5.48-12.24,12.24v155.448
		c-11.523-4.912-18.993-16.238-18.972-28.764V163.828c0-6.76-5.48-12.24-12.24-12.24l0,0c-6.76,0-12.24,5.48-12.24,12.24v126.684
		c-0.064,26.094,17.997,48.733,43.452,54.468v285.192c0,6.76,5.48,12.24,12.24,12.24l0,0c6.76,0,12.24-5.48,12.24-12.24V344.98
		c25.456-5.735,43.517-28.375,43.452-54.468V163.828z"/>
	<path fill="#010101" d="M596.588,630.172V169.336c0.247-6.755-5.029-12.432-11.785-12.679c-3.36-0.123-6.623,1.143-9.022,3.499
		l-58.752,56.304c-2.307,2.26-3.626,5.339-3.672,8.568v236.844c0.079,4.794,2.949,9.099,7.344,11.017l4.896,1.224
		c3.144,0.118,6.212-0.978,8.568-3.061l38.556-36.108v195.229c0,6.76,5.48,12.24,12.24,12.24l0,0
		C591.479,642.086,596.596,636.7,596.588,630.172z M537.224,230.536l34.272-33.048v203.796l-33.66,32.437L537.224,230.536z"/>
	<path fill="#010101" d="M306.5,213.4c-98.02,0-177.48,79.46-177.48,177.48s79.46,177.48,177.48,177.48s177.48-79.461,177.48-177.48
		S404.52,213.4,306.5,213.4z M306.5,543.88c-84.5,0-153-68.5-153-153c0-84.5,68.5-153,153-153c84.5,0,153,68.5,153,153
		C459.5,475.38,391,543.88,306.5,543.88z"/>
	<path fill="#010101" d="M306.5,277.66c-62.53,0-113.22,50.69-113.22,113.22c0,62.53,50.69,113.22,113.22,113.22
		c62.529,0,113.22-50.689,113.22-113.22l0,0C419.72,328.35,369.029,277.66,306.5,277.66z M306.5,479.008
		c-49.01-0.001-88.739-39.732-88.738-88.742c0.001-49.01,39.732-88.739,88.742-88.738c49.01,0.001,88.739,39.732,88.738,88.742
		c0,0.204-0.001,0.407-0.002,0.61c0,49.01-39.73,88.74-88.74,88.74V479.008z"/>
</g>
</svg>
